<svg id="Icons" xmlns="http://www.w3.org/2000/svg" viewBox="0 0 512 512"><defs><style>.cls-1{fill:#29a3fb;}.cls-2{fill:#0989d8;}.cls-3{fill:#aacfe5;}.cls-4{fill:#cde6f6;}.cls-5{fill:#eef9ff;}.cls-6{fill:#f39e22;}.cls-7{fill:#f9c744;}.cls-8{fill:#fff;}.cls-9{fill:#6b250c;}.cls-10{fill:#7a2b13;}.cls-11{fill:#962a11;}.cls-12{fill:#efb732;}.cls-13{fill:#dd8c29;}.cls-14{fill:#ebd9ea;}.cls-15{fill:#c44a1a;}</style></defs><title>019-beer-export</title><circle class="cls-1" cx="256" cy="256" r="255.98"/><path class="cls-2" d="M0,255.76A255.63,255.63,0,0,1,103.44,50.44c113.54-84.25,273.87-60.52,358.12,53a254.76,254.76,0,0,1,49.93,136,76.89,76.89,0,0,0-14.24,6.88c-23.84,14.74-42,41.9-69.91,44.44-19.15,1.75-37.29-9.24-51.1-22.62s-24.87-29.51-39.4-42.12a112.53,112.53,0,0,0-157.7,10c-14.17,15.89-26.53,37.44-47.68,40-28.75,3.44-51.22-31.63-80-28.95-9.3.87-17.72,5.66-26.73,8A54.5,54.5,0,0,1,0,255.76Z"/><path class="cls-3" d="M439.3,231.48l-12,168a13.06,13.06,0,0,1-13,12.12H327.42a13.07,13.07,0,0,1-13-12.17L303,231.46a5.33,5.33,0,0,1,5.32-5.69H434A5.35,5.35,0,0,1,439.3,231.48Z"/><path class="cls-4" d="M439.3,231.48l-12,168a13.06,13.06,0,0,1-13,12.12H343.61a13.05,13.05,0,0,1-13-12.17L319.2,231.46a5.33,5.33,0,0,1,5.33-5.69H434A5.35,5.35,0,0,1,439.3,231.48Z"/><path class="cls-5" d="M428.24,268h0a7.87,7.87,0,0,1,7.85,8.43l-3.41,47.75a7.87,7.87,0,0,1-7.85,7.31h0a7.86,7.86,0,0,1-7.85-8.43l3.4-47.75A7.88,7.88,0,0,1,428.24,268Z"/><path class="cls-5" d="M422.92,342.52h0a7.87,7.87,0,0,1,7.85,8.43L430,361.64a7.87,7.87,0,0,1-7.85,7.31h0a7.86,7.86,0,0,1-7.85-8.43l.76-10.69A7.87,7.87,0,0,1,422.92,342.52Z"/><path class="cls-6" d="M421.27,263l-8.81,123.5a9.6,9.6,0,0,1-9.58,8.92H339a9.61,9.61,0,0,1-9.58-9L321.05,263Z"/><ellipse class="cls-7" cx="403.13" cy="299.08" rx="19.61" ry="11.11" transform="translate(80.14 683.31) rotate(-86.52)"/><ellipse class="cls-7" cx="400.95" cy="334.91" rx="12.23" ry="6.93" transform="translate(42.32 714.8) rotate(-86.52)"/><path class="cls-6" d="M319.19,117.21v22.18h19.25V281.48h22.18V139.39h0a22.18,22.18,0,0,0-22.18-22.18Z"/><path class="cls-8" d="M421.27,263H321.05a13.74,13.74,0,0,1,18.58-12.9,13.78,13.78,0,0,1,27.44-.3A21.35,21.35,0,0,1,391,248.2a10.66,10.66,0,0,1,21.28,1,10.36,10.36,0,0,1-.49,3.17A10.68,10.68,0,0,1,421.27,263Z"/><circle class="cls-8" cx="357.75" cy="262.99" r="5.94"/><circle class="cls-8" cx="382.02" cy="282.4" r="5.94"/><circle class="cls-8" cx="366.16" cy="299.96" r="7.06"/><circle class="cls-8" cx="378.61" cy="327.79" r="9.13"/><circle class="cls-8" cx="337.78" cy="281.48" r="9.13"/><circle class="cls-8" cx="396.88" cy="266.18" r="9.13"/><circle class="cls-8" cx="385.19" cy="358.7" r="5.94"/><circle class="cls-8" cx="341.92" cy="318.66" r="5.94"/><circle class="cls-8" cx="356.04" cy="373.8" r="7.65"/><path class="cls-8" d="M372.49,224.18l5.86-21.58A9,9,0,0,1,390,196.5l6.45,2.3A9,9,0,0,1,401,212.07l-12.32,19.29A9,9,0,0,1,378.1,235h0A9,9,0,0,1,372.49,224.18Z"/><path class="cls-8" d="M412.28,231.58l17.34-7.76a6.5,6.5,0,0,0,2.86-9.36L429,208.89a6.49,6.49,0,0,0-10-1.25L405.13,221a6.47,6.47,0,0,0-.95,8.21h0A6.48,6.48,0,0,0,412.28,231.58Z"/><path class="cls-9" d="M181.39,150.24,39.49,232.17a20,20,0,0,0-7.32,27.28L66,318.11a20,20,0,0,0,27.3,7.31l141.9-81.93a27.38,27.38,0,0,0,12.7-31.12,14,14,0,0,1,5.82-15.48l60.76-39.63.28.49a6.06,6.06,0,0,0,9.39,1.38l13.14-12.29a6,6,0,0,0,1.12-7.45l-15.28-26.48a6.09,6.09,0,0,0-7-2.77l-17.21,5.24a6.05,6.05,0,0,0-3.49,8.83l.28.49L231,157.5a14,14,0,0,1-16.32-2.7A27.39,27.39,0,0,0,181.39,150.24Z"/><path class="cls-10" d="M181.39,150.24,39.49,232.17a20,20,0,0,0-7.32,27.28L56.62,301.8a20,20,0,0,0,27.29,7.3l136.55-78.84A20.57,20.57,0,0,0,228,202.11a14,14,0,0,1,5.82-15.48l75.74-48.26,0,0a.24.24,0,0,1,.32.1,6.29,6.29,0,0,0,9.76,1.45l12.39-11.57-8.9-15.42a6.09,6.09,0,0,0-7-2.77l-17.21,5.24a6.05,6.05,0,0,0-3.49,8.83l.28.49L231,157.5a14,14,0,0,1-16.32-2.7A27.39,27.39,0,0,0,181.39,150.24Z"/><ellipse class="cls-11" cx="207.11" cy="168.26" rx="10.04" ry="16.8" transform="translate(-9.03 324.77) rotate(-75)"/><ellipse class="cls-11" cx="174.64" cy="167.87" rx="11.56" ry="7.14" transform="matrix(0.95, -0.31, 0.31, 0.95, -43.74, 63.04)"/><path class="cls-11" d="M54.29,279.54H94.74a6.23,6.23,0,0,1,6.23,6.23v0A6.23,6.23,0,0,1,94.74,292H54.29a0,0,0,0,1,0,0V279.54A0,0,0,0,1,54.29,279.54Z" transform="matrix(-0.5, -0.87, 0.87, -0.5, -131.04, 495.88)"/><rect class="cls-11" x="44.34" y="241.91" width="23.13" height="12.46" rx="6.23" transform="matrix(-0.5, -0.87, 0.87, -0.5, -131.04, 420.62)"/><path class="cls-11" d="M288.93,133.67h0a5.23,5.23,0,0,0-6.88-2L248.77,148.5a5.22,5.22,0,0,0-2.16,7.26l1,1.75a5.21,5.21,0,0,0,7.12,1.91L287,140.79A5.22,5.22,0,0,0,288.93,133.67Z"/><polygon class="cls-12" points="146.19 170.56 70.48 214.27 124.32 307.53 200.03 263.82 199.79 242.19 199.35 202.04 146.19 170.56"/><polygon class="cls-13" points="199.79 242.19 114.89 291.21 124.32 307.53 200.03 263.82 199.79 242.19"/><path class="cls-8" d="M128.72,180.64l10.71,18.54c14.66-2.46,29.45,3.5,36.79,16.22s5.11,28.5-4.36,40l10.71,18.54-24.74,14.28-10.7-18.54c-14.66,2.47-29.45-3.5-36.79-16.21s-5.11-28.51,4.36-40L104,194.92Z"/><rect class="cls-14" x="156.07" y="258.6" width="18.85" height="28.56" transform="translate(11.91 552.64) rotate(-120)"/><ellipse class="cls-6" cx="143.28" cy="234.41" rx="27.57" ry="25.37" transform="translate(-98.01 103.04) rotate(-30)"/><ellipse class="cls-7" cx="143.28" cy="234.41" rx="20.58" ry="18.94" transform="translate(-98.01 103.04) rotate(-30)"/><rect class="cls-15" x="140.68" y="227.19" width="21.04" height="5.58" rx="2.79" transform="translate(27.64 475.91) rotate(-120)"/><rect class="cls-15" x="125.06" y="232.22" width="34.86" height="5.58" rx="2.79" transform="matrix(-0.5, -0.87, 0.87, -0.5, 10.22, 475.91)"/></svg>